<svg xmlns="http://www.w3.org/2000/svg" viewBox="0 0 184.6 53.13"><defs><style>.cls-1{fill:#f15b62;}.cls-2{fill:#fff;}</style></defs><g id="Layer_2" data-name="Layer 2"><g id="Layer_1-2" data-name="Layer 1"><path class="cls-1" d="M53,17l-2.33-1.49V5.38H44.57a4.06,4.06,0,0,0-4,3.57L26.52,0,0,17l3.56,5.57h0a23.64,23.64,0,0,0-.93,6.65A24,24,0,0,0,45.21,44.38h0A23.89,23.89,0,0,0,50.71,29.1V20.6Zm-26.36,26A13.82,13.82,0,1,1,40.49,29.12,13.83,13.83,0,0,1,26.68,42.94"/><path class="cls-2" d="M114.05,17.59h-2.5V32.53h0a8.6,8.6,0,0,1-8.93,8.58,8.72,8.72,0,0,1-8.25-8.79V21.62a4,4,0,0,0-4-4H88V32.53h0a15,15,0,0,0,15.3,14.94A15.12,15.12,0,0,0,117.9,32.25V21.45a3.85,3.85,0,0,0-3.85-3.86"/><path class="cls-2" d="M144.18,20.31a14.91,14.91,0,0,0-17.17,0V9.75a4.09,4.09,0,0,0-4.1-4.09h-2.26V32.53h0c0,.39,0,.77,0,1.15s.07.75.13,1.12a5.43,5.43,0,0,0,.09.56c.07.36.16.72.25,1.08,0,.18.1.35.16.53s.15.47.23.69.09.23.13.34.19.45.29.68a13.39,13.39,0,0,0,.84,1.59,15.58,15.58,0,0,0,1,1.48,12.12,12.12,0,0,0,.94,1.08,14.85,14.85,0,0,0,10.27,4.63,15.12,15.12,0,0,0,15.48-14.69,14.9,14.9,0,0,0-6.36-12.46M135.6,41.12a8.59,8.59,0,1,1,8.58-8.74.76.76,0,0,1,0,.15,8.6,8.6,0,0,1-8.59,8.59"/><path class="cls-2" d="M82.31,41.11h-.42a8.6,8.6,0,0,1-8.59-8.49h0V24h9.27V21.39a3.8,3.8,0,0,0-3.79-3.8H73.3v-8a3.94,3.94,0,0,0-3.94-3.94H66.94V32.53a15,15,0,0,0,15,14.95h.65l.27,0,.39,0,.23,0,.47-.06H84a14.91,14.91,0,0,0,6.35-2.51,17.68,17.68,0,0,1-3.55-5.26,8.52,8.52,0,0,1-4.52,1.55"/><path class="cls-2" d="M184.6,25,168.1,14.42h0L151.6,25l2.17,3.39a14.92,14.92,0,0,0,14.36,19.11,14.9,14.9,0,0,0,8.59-2.72,2.54,2.54,0,0,0,2.54,2.55h3.82V32.53a14.75,14.75,0,0,0-.61-4.22ZM168.13,41.13a8.6,8.6,0,1,1,8.59-8.6,8.61,8.61,0,0,1-8.59,8.6"/></g></g></svg>