<svg xmlns="http://www.w3.org/2000/svg" viewBox="0 0 144.41 187.71"><defs><style>.cls-1{fill:none;stroke:#2a0c72;stroke-miterlimit:10;stroke-width:1.72px;}</style></defs><g id="Layer_2" data-name="Layer 2"><g id="Layer_1-2" data-name="Layer 1"><path class="cls-1" d="M140,51.94c-5.82-9.61-17.14-13.72-27-10.46,7.43-7.2,9-19.12,3.2-28.73C109.54,1.68,95.51-2.08,84.91,4.35l-15.18,9.2C62.09,1.33,46.5-2.78,34.68,4.38S19.3,27.27,26.6,39.7L11.42,48.91c-10.59,6.42-13.75,20.6-7,31.67,5.82,9.61,17.14,13.71,27,10.45-7.44,7.2-9,19.13-3.2,28.74,6.71,11.07,20.76,14.86,31.36,8.43l1.48-.9v59.55H81.27V126.22a25.25,25.25,0,0,0,28.47,1.95c11.82-7.17,15.38-22.89,8.08-35.32L133,83.64C143.59,77.22,146.75,63,140,51.94Z"/></g></g></svg>