<svg xmlns="http://www.w3.org/2000/svg" viewBox="0 0 108.39 102.6"><defs><style>.cls-1{fill:#2a0c72;}</style></defs><g id="Layer_2" data-name="Layer 2"><g id="Layer_1-2" data-name="Layer 1"><path class="cls-1" d="M107.27,23.49a7.3,7.3,0,0,0-8.48-3.28,7.31,7.31,0,0,0,1-9,7.22,7.22,0,0,0-9.86-2.64l-4.77,2.89a8.12,8.12,0,0,0-11-2.88A8.13,8.13,0,0,0,71.6,19.65l-4.77,2.89a7.22,7.22,0,0,0-2.21,10,7.32,7.32,0,0,0,8.48,3.29,7.31,7.31,0,0,0-1,9A7.23,7.23,0,0,0,82,47.48l.47-.28V79.25L56.05,33.73H41.89V17.78L20.94,0,0,17.78V22.6a18.4,18.4,0,0,1,11.17-3.74c10,0,18.08,7.82,18.08,17.44V47.57H22.87V36.3c0-6.1-5.25-11.06-11.7-11.06A11.67,11.67,0,0,0,0,33V47.57H0v54.67H6.4V93H22.87v9.26h6.38V47.57H41.89v0h5.68L79.46,102.6H100V88.78H88.8V46.86a8,8,0,0,0,9,.61,8.11,8.11,0,0,0,2.54-11.11l4.78-2.89A7.23,7.23,0,0,0,107.27,23.49ZM22.87,47.57v9.25H6.4V47.57ZM6.4,63.2H22.87v8.51H6.4Zm0,23.41V78.09H22.87v8.52Z"/></g></g></svg>