<svg xmlns="http://www.w3.org/2000/svg" viewBox="0 0 187.71 107.77"><defs><style>.cls-1{fill:none;stroke:#2a0c72;stroke-miterlimit:10;stroke-width:1.72px;}</style></defs><g id="Layer_2" data-name="Layer 2"><g id="Layer_1-2" data-name="Layer 1"><polygon class="cls-1" points="126.32 91.77 93.87 63.2 61.43 91.78 28.98 63.2 0.86 87.96 0.86 102.81 28.98 78.05 61.43 106.63 93.87 78.05 126.32 106.63 158.77 78.05 186.85 102.79 186.85 87.93 158.77 63.2 126.32 91.77"/><polygon class="cls-1" points="126.32 60.75 93.87 32.17 61.43 60.75 28.98 32.17 0.86 56.93 0.86 71.79 28.98 47.02 61.43 75.6 93.87 47.03 126.32 75.6 158.77 47.03 186.85 71.76 186.85 56.91 158.77 32.17 126.32 60.75"/><polygon class="cls-1" points="158.77 1.14 126.32 29.72 93.87 1.14 61.43 29.72 28.98 1.14 0.86 25.91 0.86 40.76 28.98 16 61.43 44.58 93.87 16 126.32 44.58 158.77 16 186.85 40.73 186.85 25.88 158.77 1.14"/></g></g></svg>