<svg xmlns="http://www.w3.org/2000/svg" viewBox="0 0 185.24 130.88"><defs><style>.cls-1{fill:none;stroke:#2a0c72;stroke-miterlimit:10;stroke-width:1.72px;}</style></defs><g id="Layer_2" data-name="Layer 2"><g id="Layer_1-2" data-name="Layer 1"><path class="cls-1" d="M184.38,42c-12,0-17.75-9.62-21.93-16.64-3.67-6.18-5.72-9.09-8.66-9.09s-5,2.91-8.66,9.09C141,32.4,135.24,42,123.21,42s-17.75-9.62-21.93-16.64c-3.67-6.18-5.72-9.09-8.66-9.09s-5,2.91-8.66,9.09C79.79,32.4,74.07,42,62,42S44.28,32.4,40.11,25.38c-3.67-6.18-5.72-9.09-8.66-9.09s-5,2.91-8.66,9.09C18.61,32.4,12.89,42,.86,42V26.58c2.93,0,5-2.91,8.66-9.09C13.69,10.47,19.41.86,31.45.86S49.2,10.47,53.38,17.49c3.67,6.18,5.72,9.09,8.66,9.09s5-2.91,8.66-9.09C74.87,10.47,80.59.86,92.62.86s17.76,9.61,21.93,16.63c3.67,6.18,5.72,9.09,8.66,9.09s5-2.91,8.66-9.09C136,10.47,141.76.86,153.79.86s17.76,9.61,21.93,16.63c3.67,6.18,5.72,9.09,8.66,9.09Zm0,28.57c-2.94,0-5-2.92-8.66-9.09-4.17-7-9.89-16.64-21.93-16.64S136,54.48,131.87,61.5c-3.67,6.17-5.73,9.09-8.66,9.09s-5-2.92-8.66-9.09c-4.17-7-9.89-16.64-21.93-16.64S74.87,54.48,70.7,61.5C67,67.67,65,70.59,62,70.59s-5-2.92-8.66-9.09c-4.18-7-9.89-16.64-21.93-16.64S13.69,54.48,9.52,61.5C5.85,67.67,3.79,70.59.86,70.59V86c12,0,17.75-9.62,21.93-16.64,3.67-6.17,5.72-9.08,8.66-9.08s5,2.91,8.66,9.08C44.28,76.4,50,86,62,86S79.79,76.4,84,69.38c3.68-6.17,5.73-9.08,8.66-9.08s5,2.91,8.66,9.08c4.18,7,9.89,16.64,21.93,16.64S141,76.4,145.13,69.38c3.68-6.17,5.73-9.08,8.66-9.08s5,2.91,8.66,9.08c4.18,7,9.89,16.64,21.93,16.64Zm0,44c-2.94,0-5-2.91-8.66-9.09-4.17-7-9.89-16.63-21.93-16.63S136,98.48,131.87,105.5c-3.67,6.18-5.73,9.09-8.66,9.09s-5-2.91-8.66-9.09c-4.17-7-9.89-16.63-21.93-16.63S74.87,98.48,70.7,105.5C67,111.68,65,114.59,62,114.59s-5-2.91-8.66-9.09c-4.18-7-9.89-16.63-21.93-16.63S13.69,98.48,9.52,105.5c-3.67,6.18-5.73,9.09-8.66,9.09V130c12,0,17.75-9.61,21.93-16.63,3.67-6.18,5.72-9.09,8.66-9.09s5,2.91,8.66,9.09C44.28,120.41,50,130,62,130S79.79,120.41,84,113.39c3.68-6.18,5.73-9.09,8.66-9.09s5,2.91,8.66,9.09c4.18,7,9.89,16.63,21.93,16.63s17.75-9.61,21.92-16.63c3.68-6.18,5.73-9.09,8.66-9.09s5,2.91,8.66,9.09c4.18,7,9.89,16.63,21.93,16.63Z"/></g></g></svg>