<svg xmlns="http://www.w3.org/2000/svg" viewBox="0 0 107.73 107.85"><defs><style>.cls-1{fill:#2a0c72;}</style></defs><g id="Layer_2" data-name="Layer 2"><g id="Layer_1-2" data-name="Layer 1"><path class="cls-1" d="M77.48,102.41a54,54,0,0,1-47.23,0Z"/><path class="cls-1" d="M95.59,88.07a53.14,53.14,0,0,1-6.12,6.34H18.26a53.14,53.14,0,0,1-6.12-6.34Z"/><path class="cls-1" d="M104,73.74a52.45,52.45,0,0,1-3,6.34H6.7a52.45,52.45,0,0,1-3-6.34Z"/><path class="cls-1" d="M107.51,59.4a53,53,0,0,1-1,6.34H1.24a55.12,55.12,0,0,1-1-6.34Z"/><path class="cls-1" d="M63.11,51.41H44.62a9.58,9.58,0,0,1,18.49,0Z"/><path class="cls-1" d="M78.11,51.41h-7.4a17,17,0,0,0-33.69,0h-7.4a24.38,24.38,0,0,1,48.49,0Z"/><path class="cls-1" d="M92.86,51.41H86a32.25,32.25,0,0,0-64.31,0H14.87a39.08,39.08,0,0,1,78,0Z"/><path class="cls-1" d="M107.73,51.41H101a47.19,47.19,0,0,0-94.24,0H0a53.92,53.92,0,0,1,107.73,0Z"/></g></g></svg>