<svg xmlns="http://www.w3.org/2000/svg" viewBox="0 0 186.91 181.33"><defs><style>.cls-1{fill:none;stroke:#2a0c72;stroke-miterlimit:10;stroke-width:1.72px;}</style></defs><g id="Layer_2" data-name="Layer 2"><g id="Layer_1-2" data-name="Layer 1"><path class="cls-1" d="M186.05,92.9V77.32a126.79,126.79,0,0,0-34.22-4.59l-31.41-7.82L154.79,55l-4.24-14.78-34.37,9.87L141,24.4,129.94,13.72,105.11,39.45l8.64-34.7L98.82,1l-8.63,34.7L80.32,1.37,65.54,5.62,75.41,40,49.68,15.16,39,26.22,64.73,51.05,30,42.42,26.32,57.34,61,66,26.65,75.85l4,13.8a281.92,281.92,0,0,0-29.75.42v15c15.78-1.09,52.53-2.24,72.57,8.33q2.91,1.53,5.89,3.14C102.7,129,131,144.19,171.08,138.66c-29.27,29-75.75,16.85-96.24,9.42-33.23-12-59.93,1.93-74,12.5v19.23l.34.31c1.19-1.32,29.53-32.16,68.56-18,18.23,6.6,35.48,9.83,51.24,9.83,26.88,0,49.42-9.41,65.05-27.59v-24c-44.61,12.55-73.87-3.11-99.69-16.94l-.77-.41C106,93.88,146.79,80.11,186.05,92.9ZM65.26,80.75,54.37,92.05A181.54,181.54,0,0,0,33.76,89.8Z"/></g></g></svg>