<svg xmlns="http://www.w3.org/2000/svg" viewBox="0 0 108.47 108.47"><defs><style>.cls-1{fill:#2a0c72;}</style></defs><g id="Layer_2" data-name="Layer 2"><g id="Layer_1-2" data-name="Layer 1"><path class="cls-1" d="M105.64,51.37h0l-27.89,0A24.25,24.25,0,0,0,77,47.84L102.8,37.15a2.83,2.83,0,1,0-2.17-5.23L74.87,42.61a23.6,23.6,0,0,0-2-3L92.56,19.86a2.83,2.83,0,0,0-4-4L68.85,35.6a23.19,23.19,0,0,0-3-2L76.49,7.81a2.83,2.83,0,1,0-5.23-2.16L60.6,31.42a23,23,0,0,0-3.55-.7L57,2.83A2.83,2.83,0,0,0,54.2,0h0a2.83,2.83,0,0,0-2.83,2.83l0,27.89a24.25,24.25,0,0,0-3.55.71L37.15,5.67a2.83,2.83,0,1,0-5.23,2.17L42.61,33.6a23.6,23.6,0,0,0-3,2L19.86,15.91a2.83,2.83,0,0,0-4,4L35.6,39.62a23.19,23.19,0,0,0-2,3L7.81,32a2.83,2.83,0,1,0-2.16,5.23L31.42,47.86a23.35,23.35,0,0,0-.7,3.56l-27.89,0a2.83,2.83,0,1,0,0,5.66h0l27.89,0a24.25,24.25,0,0,0,.71,3.55L5.67,71.32a2.83,2.83,0,0,0,1.09,5.45,2.75,2.75,0,0,0,1.08-.22L33.6,65.86a23.6,23.6,0,0,0,2,3L15.91,88.61a2.83,2.83,0,1,0,4,4L39.62,72.87a24.26,24.26,0,0,0,3,2L32,100.66a2.82,2.82,0,0,0,1.53,3.69,2.78,2.78,0,0,0,1.08.22,2.84,2.84,0,0,0,2.62-1.75L47.86,77.05a24.63,24.63,0,0,0,3.56.7l0,27.89a2.83,2.83,0,0,0,2.83,2.83h0a2.83,2.83,0,0,0,2.83-2.83l0-27.89A24.25,24.25,0,0,0,60.63,77L71.32,102.8a2.83,2.83,0,0,0,2.62,1.74,2.92,2.92,0,0,0,1.08-.21,2.83,2.83,0,0,0,1.53-3.7L65.86,74.87a23.6,23.6,0,0,0,3-2L88.61,92.56a2.83,2.83,0,0,0,4-4L72.87,68.85a24.26,24.26,0,0,0,2-3l25.78,10.65a2.75,2.75,0,0,0,1.08.22,2.83,2.83,0,0,0,1.08-5.45L77.05,60.6a24.23,24.23,0,0,0,.7-3.55l27.89,0a2.83,2.83,0,0,0,0-5.66Z"/></g></g></svg>