<svg xmlns="http://www.w3.org/2000/svg" viewBox="0 0 83.16 108.39"><defs><style>.cls-1{fill:#2a0c72;}</style></defs><g id="Layer_2" data-name="Layer 2"><g id="Layer_1-2" data-name="Layer 1"><path class="cls-1" d="M81.09,29.77a13.53,13.53,0,0,0-15.71-6.09A13.54,13.54,0,0,0,67.24,6.93C63.33.48,55.16-1.71,49,2L40.14,7.4C35.68.27,26.6-2.12,19.71,2.05s-9,13.34-4.71,20.59L6.16,28c-6.18,3.75-8,12-4.1,18.46a13.54,13.54,0,0,0,15.71,6.09A13.56,13.56,0,0,0,15.9,69.3C19.82,75.75,28,78,34.18,74.21l.86-.52v34.7H46.86V73.06a14.73,14.73,0,0,0,16.59,1.13c6.89-4.18,9-13.34,4.71-20.58L77,48.24C83.18,44.5,85,36.24,81.09,29.77Z"/></g></g></svg>