<svg xmlns="http://www.w3.org/2000/svg" viewBox="0 0 106.95 75.27"><defs><style>.cls-1{fill:#2a0c72;}</style></defs><g id="Layer_2" data-name="Layer 2"><g id="Layer_1-2" data-name="Layer 1"><path class="cls-1" d="M107,24c-7,0-10.35-5.6-12.78-9.69C92,10.69,90.83,9,89.12,9s-2.9,1.7-5,5.3C81.64,18.38,78.31,24,71.3,24S61,18.38,58.52,14.29c-2.14-3.6-3.33-5.3-5-5.3s-2.91,1.7-5,5.3C46,18.38,42.67,24,35.65,24s-10.34-5.6-12.78-9.69c-2.14-3.6-3.33-5.3-5-5.3s-2.91,1.7-5,5.3C10.35,18.38,7,24,0,24V15c1.71,0,2.91-1.7,5.05-5.3C7.48,5.6,10.81,0,17.83,0S28.17,5.6,30.61,9.69c2.14,3.6,3.33,5.3,5,5.3s2.91-1.7,5.05-5.3C43.13,5.6,46.46,0,53.48,0S63.82,5.6,66.25,9.69c2.14,3.6,3.34,5.3,5,5.3s2.91-1.7,5-5.3C78.78,5.6,82.11,0,89.12,0S99.47,5.6,101.9,9.69c2.14,3.6,3.34,5.3,5,5.3Zm0,16.65c-1.71,0-2.91-1.69-5-5.29-2.43-4.09-5.76-9.7-12.78-9.7s-10.34,5.61-12.77,9.7c-2.14,3.6-3.34,5.29-5,5.29s-2.91-1.69-5-5.29c-2.43-4.09-5.76-9.7-12.77-9.7s-10.35,5.61-12.78,9.7c-2.14,3.6-3.34,5.29-5.05,5.29s-2.9-1.69-5-5.29c-2.44-4.09-5.77-9.7-12.78-9.7S7.48,31.25,5.05,35.34c-2.14,3.6-3.34,5.29-5,5.29v9c7,0,10.35-5.61,12.78-9.7,2.14-3.6,3.34-5.29,5-5.29s2.9,1.69,5,5.29c2.44,4.09,5.77,9.7,12.78,9.7S46,44,48.43,39.93c2.14-3.6,3.34-5.29,5-5.29s2.9,1.69,5,5.29C61,44,64.29,49.63,71.3,49.63S81.64,44,84.08,39.93c2.14-3.6,3.33-5.29,5-5.29s2.91,1.69,5,5.29c2.43,4.09,5.76,9.7,12.78,9.7Zm0,25.65c-1.71,0-2.91-1.7-5-5.3-2.43-4.09-5.76-9.69-12.78-9.69S78.78,56.89,76.35,61c-2.14,3.6-3.34,5.3-5,5.3s-2.91-1.7-5-5.3c-2.43-4.09-5.76-9.69-12.77-9.69S43.13,56.89,40.7,61c-2.14,3.6-3.34,5.3-5.05,5.3s-2.9-1.7-5-5.3c-2.44-4.09-5.77-9.69-12.78-9.69S7.48,56.89,5.05,61c-2.14,3.6-3.34,5.3-5,5.3v9c7,0,10.35-5.6,12.78-9.69,2.14-3.6,3.34-5.3,5-5.3s2.9,1.7,5,5.3c2.44,4.09,5.77,9.69,12.78,9.69S46,69.67,48.43,65.58c2.14-3.6,3.34-5.3,5-5.3s2.9,1.7,5,5.3c2.44,4.09,5.77,9.69,12.78,9.69s10.34-5.6,12.78-9.69c2.14-3.6,3.33-5.3,5-5.3s2.91,1.7,5,5.3c2.43,4.09,5.76,9.69,12.78,9.69Z"/></g></g></svg>