<svg xmlns="http://www.w3.org/2000/svg" viewBox="0 0 108.39 61.47"><defs><style>.cls-1{fill:#2a0c72;}</style></defs><g id="Layer_2" data-name="Layer 2"><g id="Layer_1-2" data-name="Layer 1"><polygon class="cls-1" points="73.11 52.81 54.2 36.16 35.3 52.82 16.39 36.16 0 50.59 0 59.25 16.39 44.82 35.3 61.47 54.2 44.82 73.11 61.47 92.02 44.82 108.39 59.23 108.39 50.58 92.02 36.16 73.11 52.81"/><polygon class="cls-1" points="73.11 34.73 54.2 18.08 35.3 34.73 16.39 18.08 0 32.51 0 41.17 16.39 26.74 35.3 43.39 54.2 26.74 73.11 43.39 92.02 26.74 108.39 41.15 108.39 32.49 92.02 18.08 73.11 34.73"/><polygon class="cls-1" points="92.02 0 73.11 16.65 54.2 0 35.3 16.65 16.39 0 0 14.43 0 23.09 16.39 8.66 35.3 25.31 54.2 8.66 73.11 25.31 92.02 8.66 108.39 23.07 108.39 14.41 92.02 0"/></g></g></svg>