<svg xmlns="http://www.w3.org/2000/svg" viewBox="0 0 122.25 35.19"><defs><style>.cls-1{fill:#f15b62;}.cls-2{fill:#fff;}</style></defs><g id="Layer_2" data-name="Layer 2"><g id="Layer_1-2" data-name="Layer 1"><path class="cls-1" d="M35.13,11.23l-1.55-1V3.56H29.51a2.69,2.69,0,0,0-2.67,2.37L17.56,0,0,11.23l2.36,3.69h0A15.9,15.9,0,0,0,29.94,29.39h0a15.82,15.82,0,0,0,3.64-10.12V13.64ZM17.67,28.43a9.15,9.15,0,1,1,9.14-9.14,9.15,9.15,0,0,1-9.14,9.14"/><path class="cls-2" d="M75.53,11.65H73.87v9.89h0A5.7,5.7,0,0,1,68,27.23a5.79,5.79,0,0,1-5.47-5.83V14.31a2.66,2.66,0,0,0-2.66-2.66H58.28v9.89h0a9.91,9.91,0,0,0,10.13,9.9,10,10,0,0,0,9.66-10.08V14.2a2.55,2.55,0,0,0-2.55-2.55"/><path class="cls-2" d="M95.48,13.45a9.88,9.88,0,0,0-11.37,0v-7A2.71,2.71,0,0,0,81.4,3.75H79.9V21.54h0c0,.26,0,.51,0,.76s0,.5.08.75,0,.24.07.36.1.48.16.72.07.24.1.35.1.31.16.46l.09.23.18.44a11.82,11.82,0,0,0,.56,1.06,11.37,11.37,0,0,0,.68,1q.3.38.63.72a9.83,9.83,0,0,0,6.8,3.06A10,10,0,0,0,99.69,21.7a9.85,9.85,0,0,0-4.21-8.25M89.8,27.23a5.69,5.69,0,1,1,5.68-5.79v.1a5.69,5.69,0,0,1-5.68,5.69"/><path class="cls-2" d="M54.51,27.22h-.28a5.69,5.69,0,0,1-5.69-5.62h0V15.86h6.14v-1.7a2.51,2.51,0,0,0-2.51-2.51H48.54V6.36a2.61,2.61,0,0,0-2.61-2.61h-1.6V21.54a9.9,9.9,0,0,0,9.9,9.9h.61l.26,0h.15l.31,0h.09a9.84,9.84,0,0,0,4.2-1.66A11.67,11.67,0,0,1,57.5,26.2a5.64,5.64,0,0,1-3,1"/><path class="cls-2" d="M122.25,16.54l-10.93-7h0l-10.93,7,1.44,2.25a10.17,10.17,0,0,0-.4,2.73,9.94,9.94,0,0,0,9.91,9.93A9.83,9.83,0,0,0,117,29.64a1.68,1.68,0,0,0,1.68,1.69h2.53V21.54a9.85,9.85,0,0,0-.4-2.79ZM111.34,27.23A5.69,5.69,0,1,1,117,21.54a5.7,5.7,0,0,1-5.69,5.69"/></g></g></svg>