<svg xmlns="http://www.w3.org/2000/svg" viewBox="0 0 187.71 178.05"><defs><style>.cls-1{fill:none;stroke:#2a0c72;stroke-miterlimit:10;stroke-width:1.72px;}</style></defs><g id="Layer_2" data-name="Layer 2"><g id="Layer_1-2" data-name="Layer 1"><path class="cls-1" d="M184.94,41.44a12.54,12.54,0,0,0-14.55-5.64,12.54,12.54,0,0,0,1.72-15.51,12.38,12.38,0,0,0-16.91-4.53l-8.19,5c-4.13-6.6-12.54-8.82-18.92-5s-8.3,12.35-4.36,19.06l-8.19,5a12.38,12.38,0,0,0-3.8,17.09,12.54,12.54,0,0,0,14.55,5.64,12.54,12.54,0,0,0-1.72,15.51c3.62,6,11.2,8,16.92,4.55l.8-.48v55L97,59H72.74V31.64L36.8,1.13.86,31.64V39.9A31.59,31.59,0,0,1,20,33.49c17.11,0,31,13.42,31,29.92V82.75H40.11V63.41c0-10.46-9-19-20.09-19A20,20,0,0,0,.86,57.72v25h0v93.82h11V160.69H40.11v15.88H51.05V82.75H72.74v0h9.75l54.72,94.46h35.23V153.48h-19.2V81.53a13.61,13.61,0,0,0,15.36,1c6.38-3.87,8.3-12.35,4.36-19.06l8.19-5A12.39,12.39,0,0,0,184.94,41.44ZM40.11,82.75V98.63H11.84V82.75ZM11.84,109.58H40.11v14.61H11.84Zm0,40.16V135.13H40.11v14.61Z"/></g></g></svg>