<svg xmlns="http://www.w3.org/2000/svg" viewBox="0 0 187.71 176.01"><defs><style>.cls-1{fill:none;stroke:#2a0c72;stroke-miterlimit:10;stroke-width:1.72px;}</style></defs><g id="Layer_2" data-name="Layer 2"><g id="Layer_1-2" data-name="Layer 1"><path class="cls-1" d="M19.92,18.21h0l12.27,9.26a59.82,59.82,0,0,1,15.41-2c19.83,0,37.6,9.81,46.21,24.45,8.65-14.64,26.41-24.45,46.25-24.45a59.74,59.74,0,0,1,15.4,2l12.28-9.26a4.76,4.76,0,0,0,.94-6.69,3.12,3.12,0,0,0-.51-.58c-14.2-13.55-38.9-13.59-57.94.76A53.26,53.26,0,0,0,93.81,31.79,53.26,53.26,0,0,0,77.39,11.7c-19-14.35-43.71-14.27-57.91-.76a4.81,4.81,0,0,0-.15,6.76C19.52,17.88,19.73,18.06,19.92,18.21Z"/><path class="cls-1" d="M186.78,64.2c-3.2-19.36-22.89-34.29-46.72-34.29-22.78,0-41.82,13.65-46.21,31.75-4.4-18.13-23.44-31.75-46.22-31.75C23.8,29.94,4.11,44.87.91,64.2a4.75,4.75,0,0,0,4,5.45,5,5,0,0,0,.77.07H38.37a4.83,4.83,0,0,0,4.14-2.36l5.12-8.9,5.13,8.9a4.74,4.74,0,0,0,4.14,2.4H89.63A4.78,4.78,0,0,0,92,69.11L81.4,80.65,69,94.15h49.79L106.3,80.65,95.65,69.1a4.82,4.82,0,0,0,2.41.66h32.73a4.83,4.83,0,0,0,4.14-2.36l5.13-8.9,5.12,8.9a4.73,4.73,0,0,0,4.14,2.39h32.73a4.8,4.8,0,0,0,4.8-4.75A7.71,7.71,0,0,0,186.78,64.2Z"/><polygon class="cls-1" points="68.95 121.15 93.85 121.15 118.75 121.15 106.3 107.65 93.85 94.15 81.4 107.65 68.95 121.15"/><polygon class="cls-1" points="68.95 148.15 93.85 148.15 118.75 148.15 106.3 134.65 93.85 121.15 81.4 134.65 68.95 148.15"/><polygon class="cls-1" points="68.95 175.15 93.85 175.15 118.75 175.15 106.3 161.65 93.85 148.15 81.4 161.65 68.95 175.15"/></g></g></svg>