<svg xmlns="http://www.w3.org/2000/svg" viewBox="0 0 186.66 186.78"><defs><style>.cls-1{fill:none;stroke:#2a0c72;stroke-miterlimit:10;stroke-width:1.72px;}</style></defs><g id="Layer_2" data-name="Layer 2"><g id="Layer_1-2" data-name="Layer 1"><path class="cls-1" d="M133.86,176.6a92.7,92.7,0,0,1-81.06,0Z"/><path class="cls-1" d="M164.93,152a90.73,90.73,0,0,1-10.5,10.88H32.23A90.73,90.73,0,0,1,21.73,152Z"/><path class="cls-1" d="M179.42,127.39a91,91,0,0,1-5.16,10.88H12.4a91,91,0,0,1-5.16-10.88Z"/><path class="cls-1" d="M185.39,102.78a92.56,92.56,0,0,1-1.75,10.89H3a92.56,92.56,0,0,1-1.75-10.89Z"/><path class="cls-1" d="M109.19,89.07H77.47a16.44,16.44,0,0,1,31.72,0Z"/><path class="cls-1" d="M134.93,89.07h-12.7a29.22,29.22,0,0,0-57.81,0H51.72a41.83,41.83,0,0,1,83.21,0Z"/><path class="cls-1" d="M160.24,89.07H148.51a55.35,55.35,0,0,0-110.36,0H26.42a67,67,0,0,1,133.82,0Z"/><path class="cls-1" d="M185.76,89.07H174.18a81,81,0,0,0-161.72,0H.9a92.53,92.53,0,0,1,184.86,0Z"/></g></g></svg>