<svg xmlns="http://www.w3.org/2000/svg" viewBox="0 0 186.91 174.85"><defs><style>.cls-1{fill:none;stroke:#2a0c72;stroke-miterlimit:10;stroke-width:1.72px;}</style></defs><g id="Layer_2" data-name="Layer 2"><g id="Layer_1-2" data-name="Layer 1"><path class="cls-1" d="M186.05,86.45V70.87a126,126,0,0,0-28.74-4.48c-7.85-.32-16.43,1.29-24.34,2.37-.05-.21-.1-.41-.17-.62l36.28-15.73a4,4,0,0,0,2.07-5.29,4,4,0,0,0-5.26-2.07L129.61,60.78a34.22,34.22,0,0,0-2.94-4.22l27.5-28.42a4,4,0,1,0-5.77-5.59L120.91,51a33,33,0,0,0-4.31-2.78l14.52-36.77a4,4,0,1,0-7.47-2.95L109.14,45.25a32.67,32.67,0,0,0-5.06-.91l-.67-39.53a4,4,0,0,0-8,.06v.07l.67,39.54a32.11,32.11,0,0,0-5,1.08L75.3,9.28a4,4,0,0,0-7.36,3.2L83.67,48.75a35.34,35.34,0,0,0-4.22,2.94L51,24.2A4,4,0,1,0,45.44,30L73.87,57.45a33,33,0,0,0-2.78,4.31L34.32,47.24a4,4,0,1,0-2.95,7.47L68.14,69.22a32.59,32.59,0,0,0-.91,5.07l-39.53.65a4,4,0,1,0,.13,8l39.54-.67c.09.63.19,1.25.31,1.87-3.38,1.15-6.28,1.9-9.92,1.36-4.32-.67-8.68-1.15-13-1.74l-14.13-.6a284.14,284.14,0,0,0-29.75.43V98.57a255.46,255.46,0,0,1,40.94.32,128.33,128.33,0,0,1,14.9,2.29,73.7,73.7,0,0,1,12.16,3.63,48,48,0,0,1,4.57,2.1c1,.53,2,1.06,3,1.61l2.86,1.53,3.5,1.87c2.34,1.23,4.72,2.5,7.16,3.74s4.84,2.45,7.34,3.64,5.32,2.47,8.09,3.62c4,1.7,8.15,3.26,12.47,4.63,3.21,1,6.52,2,9.94,2.75a117,117,0,0,0,43.27,1.92c-18.51,18.29-43.89,20.18-65.24,17.23-2.76-.38-5.45-.84-8-1.38a157.57,157.57,0,0,1-18.67-4.94c-1.52-.51-3-1-4.29-1.49-1.11-.41-2.21-.77-3.31-1.13-31.69-10-57.07,3.41-70.66,13.62v19.24l.34.29c1.19-1.32,29.53-32.16,68.57-18,18.23,6.61,35.47,9.83,51.24,9.83,26.87,0,49.41-9.4,65-27.59v-24a113,113,0,0,1-37.77,4.41A100.59,100.59,0,0,1,135,116.57a112.76,112.76,0,0,1-14.89-4C107.78,108.38,96.8,102.5,86.37,96.9l-.78-.41a180,180,0,0,1,48.27-14C150.22,80.33,168.29,80.67,186.05,86.45Z"/></g></g></svg>