<svg xmlns="http://www.w3.org/2000/svg" viewBox="0 0 187.85 187.85"><defs><style>.cls-1{fill:none;stroke:#2a0c72;stroke-miterlimit:10;stroke-width:1.72px;}</style></defs><g id="Layer_2" data-name="Layer 2"><g id="Layer_1-2" data-name="Layer 1"><path class="cls-1" d="M182.13,89h0l-47.86,0a41.15,41.15,0,0,0-1.21-6.1l44.2-18.34a4.86,4.86,0,0,0-3.72-9L129.33,74a40.75,40.75,0,0,0-3.46-5.16l33.82-33.87a4.85,4.85,0,1,0-6.87-6.86L119,62a40.86,40.86,0,0,0-5.17-3.46l18.29-44.23a4.86,4.86,0,0,0-9-3.71L104.85,54.78a40.77,40.77,0,0,0-6.09-1.21l0-47.86A4.85,4.85,0,0,0,93.87.86h0A4.86,4.86,0,0,0,89,5.72l0,47.86a41.15,41.15,0,0,0-6.1,1.21L64.6,10.59a4.86,4.86,0,1,0-9,3.72L74,58.52A40.75,40.75,0,0,0,68.81,62L34.94,28.15A4.86,4.86,0,0,0,28.08,35L62,68.85A40.15,40.15,0,0,0,58.49,74L14.26,55.73a4.86,4.86,0,0,0-3.71,9L54.78,83a41.15,41.15,0,0,0-1.21,6.1l-47.86,0a4.86,4.86,0,0,0,0,9.72h0l47.86,0a40.77,40.77,0,0,0,1.21,6.09l-44.2,18.35a4.86,4.86,0,0,0,3.72,9l44.21-18.34A40.75,40.75,0,0,0,62,119L28.15,152.91A4.86,4.86,0,0,0,35,159.77L68.85,125.9A40.15,40.15,0,0,0,74,129.36L55.73,173.59a4.86,4.86,0,0,0,9,3.71L83,133.07a39.89,39.89,0,0,0,6.1,1.2l0,47.87A4.86,4.86,0,0,0,94,187h0a4.86,4.86,0,0,0,4.86-4.86l0-47.86a41.15,41.15,0,0,0,6.1-1.21l18.34,44.2a4.85,4.85,0,0,0,4.49,3,4.64,4.64,0,0,0,1.85-.38,4.85,4.85,0,0,0,2.63-6.34l-18.34-44.21a40.75,40.75,0,0,0,5.16-3.46l33.87,33.83a4.86,4.86,0,0,0,6.86-6.88L125.9,119a40.86,40.86,0,0,0,3.46-5.17l44.23,18.29a4.84,4.84,0,0,0,6.34-2.64,4.86,4.86,0,0,0-2.63-6.34l-44.23-18.28a39.89,39.89,0,0,0,1.2-6.1l47.87,0a4.86,4.86,0,1,0,0-9.71Z"/></g></g></svg>