<svg xmlns="http://www.w3.org/2000/svg" viewBox="0 0 288.62 90.27"><defs></defs><g id="Layer_2" data-name="Layer 2"><g id="Layer_1-2" data-name="Layer 1"><path fill="#F95A60" d="M288.62,26l-3.57-2.28V8.24h-9.41a6.25,6.25,0,0,0-6.2,5.48L248,0h0L207.34,26l5.46,8.54,0,0a36.18,36.18,0,0,0-1.44,10.2A36.82,36.82,0,0,0,276.63,68h0a36.61,36.61,0,0,0,8.42-23.4h0v-13ZM248.22,65.8a21.17,21.17,0,1,1,21.17-21.17A21.2,21.2,0,0,1,248.22,65.8Z"></path><circle fill="#FFFFFF" cx="18.54" cy="12.95" r="4.28"></circle><circle fill="#FFFFFF" cx="30.53" cy="12.95" r="4.28"></circle><circle fill="#FFFFFF" cx="76.95" cy="76.86" r="4.28"></circle><path fill="#FFFFFF" d="M169.05,26.8A22.77,22.77,0,0,0,155.88,31V14.53H152a5.88,5.88,0,0,0-5.88,5.88V62.86h-11.8V49.69A22.92,22.92,0,1,0,93,63.26a23.21,23.21,0,0,0,7.36,6.47,22.83,22.83,0,0,0,10.86,2.87h13.36a13.11,13.11,0,0,1-3.21,7.8,3.82,3.82,0,0,0-.17,4.76l3.72,5.11a22.94,22.94,0,0,0,8.49-12,17.62,17.62,0,0,0,.94-5.65h34.71a22.9,22.9,0,0,0,0-45.8ZM124.57,49.69V62.86H111.42a13.18,13.18,0,1,1,13.17-13.17Zm44.48,13.17H155.88V49.7a13.17,13.17,0,1,1,13.17,13.16Z"></path><path fill="#FFFFFF" d="M74.68,42.72v7A13.18,13.18,0,0,1,61,62.83a13,13,0,0,1-9.76-5.07,27,27,0,0,1-4.85,9.08,22.74,22.74,0,0,0,15.68,5.73c12.5-.29,22.35-10.81,22.35-23.32V36.9H80.5A5.82,5.82,0,0,0,74.68,42.72Z"></path><path fill="#FFFFFF" d="M48.36,49.85v-8.1l2.22-3.47-2.22-1.43V27.23H42.5a3.89,3.89,0,0,0-3.86,3.41L25.29,22.1h0L0,38.28l3.4,5.31h0a22.54,22.54,0,0,0-.9,6.34,22.9,22.9,0,0,0,40.59,14.5h0a22.82,22.82,0,0,0,5.24-14.57ZM25.44,63.05A13.18,13.18,0,1,1,38.61,49.88,13.19,13.19,0,0,1,25.44,63.05Z"></path></g></g></svg>
