<svg xmlns="http://www.w3.org/2000/svg" viewBox="0 0 112.31 47.74"><defs></defs><g id="Layer_2" data-name="Layer 2"><g id="Layer_1-2" data-name="Layer 1"><circle class="cls-1" cx="10.85" cy="2.5" r="2.5"></circle><circle class="cls-1" cx="17.86" cy="2.5" r="2.5"></circle><circle class="cls-1" cx="45.02" cy="39.9" r="2.5"></circle><path class="cls-1" d="M98.91,10.6a13.29,13.29,0,0,0-7.7,2.45V3.43H89a3.44,3.44,0,0,0-3.44,3.44V31.7H78.6V24A13.39,13.39,0,1,0,65.07,37.4h7.82A7.63,7.63,0,0,1,71,42a2.24,2.24,0,0,0-.1,2.79l2.18,3a13.36,13.36,0,0,0,5-7,10.08,10.08,0,0,0,.55-3.31H98.91a13.4,13.4,0,1,0,0-26.8ZM72.89,24v7.7h-7.7A7.71,7.71,0,1,1,72.9,24Zm26,7.71h-7.7V24a7.7,7.7,0,1,1,7.7,7.71Z"></path><path class="cls-1" d="M43.69,19.92v3.94a.57.57,0,0,1,0,.13,7.71,7.71,0,0,1-8,7.7,7.6,7.6,0,0,1-5.71-3A15.56,15.56,0,0,1,27.14,34a13.33,13.33,0,0,0,9.18,3.36A13.56,13.56,0,0,0,49.39,23.74V16.52H47.1A3.41,3.41,0,0,0,43.69,19.92Z"></path><path class="cls-1" d="M28.29,24.09V19.35l1.3-2-1.3-.83V10.86H24.87a2.27,2.27,0,0,0-2.26,2l-7.81-5h0L0,17.32l2,3.11H2a13.06,13.06,0,0,0-.52,3.72,13.41,13.41,0,0,0,23.75,8.48h0a13.37,13.37,0,0,0,3.06-8.53ZM14.88,31.81a7.71,7.71,0,1,1,7.71-7.7A7.71,7.71,0,0,1,14.88,31.81Z"></path></g></g></svg>
