<svg xmlns="http://www.w3.org/2000/svg" viewBox="0 0 108.39 101.57"><defs><style>.cls-1{fill:#2a0c72;}</style></defs><g id="Layer_2" data-name="Layer 2"><g id="Layer_1-2" data-name="Layer 1"><path class="cls-1" d="M11.11,10.11h0l7.15,5.4a34.87,34.87,0,0,1,9-1.19c11.56,0,21.91,5.72,26.93,14.25,5-8.53,15.39-14.25,27-14.25a34.8,34.8,0,0,1,9,1.19l7.16-5.4a2.78,2.78,0,0,0,.55-3.9,1.87,1.87,0,0,0-.3-.33C89.23-2,74.83-2,63.74,6.32A31,31,0,0,0,54.17,18,31,31,0,0,0,44.6,6.32C33.53-2,19.13-2,10.85,5.88a2.79,2.79,0,0,0-.08,3.93A2.36,2.36,0,0,0,11.11,10.11Z"/><path class="cls-1" d="M108.34,36.91c-1.86-11.28-13.33-20-27.22-20-13.28,0-24.37,8-26.93,18.5-2.56-10.56-13.66-18.5-26.93-18.5C13.37,17,1.9,25.65,0,36.91a2.77,2.77,0,0,0,2.31,3.18,3.42,3.42,0,0,0,.45,0H21.86a2.79,2.79,0,0,0,2.41-1.38l3-5.18,3,5.18a2.77,2.77,0,0,0,2.42,1.4H51.73a2.76,2.76,0,0,0,1.41-.38l-6.2,6.73-7.26,7.86h29L61.45,46.5l-6.21-6.73a2.85,2.85,0,0,0,1.4.38H75.72a2.83,2.83,0,0,0,2.41-1.37l3-5.19,3,5.19a2.78,2.78,0,0,0,2.42,1.39h19.07a2.8,2.8,0,0,0,2.8-2.77A4.07,4.07,0,0,0,108.34,36.91Z"/><polygon class="cls-1" points="39.68 70.1 54.19 70.1 68.7 70.1 61.45 62.23 54.19 54.36 46.94 62.23 39.68 70.1"/><polygon class="cls-1" points="39.68 85.83 54.19 85.83 68.7 85.83 61.45 77.97 54.19 70.1 46.94 77.97 39.68 85.83"/><polygon class="cls-1" points="39.68 101.57 54.19 101.57 68.7 101.57 61.45 93.7 54.19 85.83 46.94 93.7 39.68 101.57"/></g></g></svg>