<svg xmlns="http://www.w3.org/2000/svg" viewBox="0 0 107.92 104.36"><defs><style>.cls-1{fill:#2a0c72;}</style></defs><g id="Layer_2" data-name="Layer 2"><g id="Layer_1-2" data-name="Layer 1"><path class="cls-1" d="M107.92,53.53V44.45A73.79,73.79,0,0,0,88,41.78l-18.3-4.56,20-5.75-2.48-8.61-20,5.75,14.47-15L75.22,7.39l-14.47,15,5-20.23L57.09,0l-5,20.22L46.3.19,37.69,2.67l5.75,20-15-14.47-6.22,6.45,15,14.46L17,24.11l-2.16,8.7,20.22,5L15,43.59l2.31,8A163.21,163.21,0,0,0,0,51.88V60.6c9.2-.63,30.61-1.3,42.29,4.85l3.43,1.83C59.35,74.58,75.84,83.42,99.2,80.2,82.14,97.07,55.06,90,43.11,85.69,23.75,78.67,8.19,86.81,0,93v11.2l.2.18c.69-.77,17.21-18.74,40-10.5A88.41,88.41,0,0,0,70,99.59c15.67,0,28.8-5.49,37.91-16.08v-14c-26,7.31-43-1.81-58.1-9.87l-.44-.24C61.25,54.1,85,46.08,107.92,53.53ZM37.53,46.45,31.18,53a104.7,104.7,0,0,0-12-1.31Z"/></g></g></svg>